<?xml version="1.0" encoding="UTF-8" standalone="no"?>
<!DOCTYPE svg PUBLIC "-//W3C//DTD SVG 1.1//EN" "http://www.w3.org/Graphics/SVG/1.1/DTD/svg11.dtd">
<svg width="100%" height="100%" viewBox="0 0 4714 1773" version="1.1" xmlns="http://www.w3.org/2000/svg" xmlns:xlink="http://www.w3.org/1999/xlink" xml:space="preserve" xmlns:serif="http://www.serif.com/" style="fill-rule:evenodd;clip-rule:evenodd;stroke-linejoin:round;stroke-miterlimit:2;">
    <g transform="matrix(1,0,0,1,0,-942)">
        <g id="Artboard2" transform="matrix(1,0,0,1,4948.68,-0.988767)">
            <rect x="-4948.68" y="942.989" width="4713.33" height="1772.73" style="fill:none;"/>
            <g transform="matrix(1,0,0,1,-4659.28,1068.39)">
                <g transform="matrix(0.0317791,0,0,0.129613,564.343,403.45)">
                    <ellipse cx="1068.2" cy="666.548" rx="401.191" ry="367.511" style="fill:rgb(105,186,255);"/>
                </g>
                <g transform="matrix(0.0294039,-0.0120549,0.0491669,0.119926,521.358,422.784)">
                    <ellipse cx="1068.2" cy="666.548" rx="401.191" ry="367.511" style="fill:rgb(105,186,255);"/>
                </g>
            </g>
            <g transform="matrix(0.652185,0,0,0.652185,-5006.84,1227.55)">
                <path d="M1981.53,465.178L1561.25,740.445L925.256,570.998L925.256,1242.06L1561.25,1411.5L1981.53,1136.24L1981.53,465.178Z" style="fill:url(#_Linear1);"/>
                <clipPath id="_clip2">
                    <path d="M1981.53,465.178L1561.25,740.445L925.256,570.998L925.256,1242.06L1561.25,1411.5L1981.53,1136.24L1981.53,465.178Z"/>
                </clipPath>
                <g clip-path="url(#_clip2)">
                    <path d="M1561.25,1411.5L1561.25,740.445L925.256,570.998L925.256,1242.06L1561.25,1411.5Z" style="fill-opacity:0.07;"/>
                </g>
            </g>
            <g transform="matrix(54.3795,0,0,54.3795,-59335,-35192.1)">
                <text x="1025.53px" y="684.728px" style="font-family:'Lato-Bold', 'Lato', sans-serif;font-weight:700;font-size:12px;fill:rgb(255,80,123);">D<tspan x="1034.51px " y="684.728px ">a</tspan>shbook</text>
            </g>
            <g transform="matrix(1,0,0,1,-1091.21,1072.27)">
                <path d="M-3136.82,557.007C-3093.42,516.401 -3031.66,485.96 -2969.78,485.96C-2899.48,485.96 -2840.17,511.411 -2797.81,552.795L-2900.41,619.993L-3136.82,557.007Z" style="fill:rgb(105,186,255);"/>
            </g>
            <g transform="matrix(1,0,0,1,-1091.21,1072.27)">
                <path d="M-3032.76,584.73C-3028.42,579.457 -3022.86,574.739 -3015.92,570.684C-2996.42,559.273 -2964.35,563.725 -2935.42,582.329C-2922.74,561.082 -2904.05,549.642 -2877.48,554.498C-2862.14,557.302 -2848.65,566.348 -2838.01,579.129L-2900.41,619.993L-3032.76,584.73Z" style="fill:rgb(75,165,255);"/>
            </g>
        </g>
    </g>
    <defs>
        <linearGradient id="_Linear1" x1="0" y1="0" x2="1" y2="0" gradientUnits="userSpaceOnUse" gradientTransform="matrix(-1053.45,941.434,-941.434,-1053.45,1928.3,648.933)"><stop offset="0" style="stop-color:rgb(255,137,182);stop-opacity:1"/><stop offset="1" style="stop-color:rgb(255,0,41);stop-opacity:1"/></linearGradient>
    </defs>
</svg>
